<?xml version="1.0" encoding="iso-8859-1"?>
<!-- Generator: Adobe Illustrator 19.0.0, SVG Export Plug-In . SVG Version: 6.00 Build 0)  -->
<svg version="1.1" id="Capa_1" xmlns="http://www.w3.org/2000/svg" xmlns:xlink="http://www.w3.org/1999/xlink" x="0px" y="0px"
	 viewBox="0 0 480.044 480.044" style="enable-background:new 0 0 480.044 480.044;" xml:space="preserve">
<g>
	<g>
		<path d="M468.766,372.854c-0.208-0.176-0.424-0.352-0.64-0.512l-220.128-160.36v-36.48c35.073-4.387,59.949-36.375,55.562-71.448
			s-36.375-59.949-71.448-55.562c-29.049,3.633-51.929,26.514-55.562,55.562H15.998c-4.418,0-8,3.582-8,8s3.582,8,8,8h232
			c4.418,0,8-3.582,8-8s-3.582-8-8-8h-55.28c4.418-26.139,29.19-43.747,55.329-39.329c26.139,4.418,43.747,29.19,39.329,55.329
			c-3.907,23.113-23.936,40.024-47.377,40c-4.418,0-8,3.582-8,8v48c0,2.556,1.222,4.958,3.288,6.464l223.048,162.528
			c7.224,6.771,7.591,18.117,0.819,25.341c-3.392,3.619-8.131,5.67-13.091,5.667H35.022c-10.502,0.006-19.021-8.504-19.026-19.006
			c-0.003-4.693,1.731-9.222,4.866-12.714l191.824-138.68c3.581-2.589,4.385-7.591,1.796-11.172
			c-2.589-3.581-7.591-4.385-11.172-1.796L10.854,371.822c-0.385,0.281-0.747,0.594-1.08,0.936
			c-13.405,13.945-12.967,36.117,0.978,49.522c6.524,6.271,15.221,9.774,24.27,9.774h411.04
			c18.742,0.025,33.957-15.148,33.982-33.89C480.057,388.507,475.956,379.302,468.766,372.854z"/>
	</g>
</g>
<g>
	<g>
		<path d="M463.998,104.054h-136c-4.418,0-8,3.582-8,8s3.582,8,8,8h136c4.418,0,8-3.582,8-8S468.417,104.054,463.998,104.054z"/>
	</g>
</g>
<g>
</g>
<g>
</g>
<g>
</g>
<g>
</g>
<g>
</g>
<g>
</g>
<g>
</g>
<g>
</g>
<g>
</g>
<g>
</g>
<g>
</g>
<g>
</g>
<g>
</g>
<g>
</g>
<g>
</g>
</svg>
